<?xml version="1.0" encoding="UTF-8" standalone="no"?>
<!-- Created with Inkscape (http://www.inkscape.org/) -->

<svg
   width="210mm"
   height="297mm"
   viewBox="0 0 210 297"
   version="1.1"
   id="svg5"
   xml:space="preserve"
   xmlns:inkscape="http://www.inkscape.org/namespaces/inkscape"
   xmlns:sodipodi="http://sodipodi.sourceforge.net/DTD/sodipodi-0.dtd"
   xmlns="http://www.w3.org/2000/svg"
   xmlns:svg="http://www.w3.org/2000/svg"><sodipodi:namedview
     id="namedview7"
     pagecolor="#ffffff"
     bordercolor="#999999"
     borderopacity="1"
     inkscape:showpageshadow="0"
     inkscape:pageopacity="0"
     inkscape:pagecheckerboard="0"
     inkscape:deskcolor="#d1d1d1"
     inkscape:document-units="mm"
     showgrid="false" /><defs
     id="defs2" /><g
     inkscape:label="Warstwa 1"
     inkscape:groupmode="layer"
     id="layer1"><path
       style="display:inline;fill:#9a5636;fill-opacity:1;stroke:#000000;stroke-width:1.23465"
       d="m 314.82006,516.58427 c -9.49538,-0.13855 -28.23225,-0.51918 -41.63749,-0.84585 l -24.37317,-0.59396 -6.43181,-2.0357 c -32.86245,-10.40111 -58.90464,-24.43014 -81.75166,-44.03991 -1.95493,-1.67792 -6.45045,-5.95646 -9.99005,-9.50787 -9.7291,-9.76152 -15.84294,-17.21532 -23.34423,-28.46061 -16.25771,-24.37216 -26.57462,-50.45162 -33.510417,-84.70879 -2.945313,-14.54744 -4.068981,-25.36995 -3.78761,-36.48001 0.25917,-10.23345 1.294262,-17.16409 3.805125,-25.47787 4.098731,-13.57142 9.943932,-20.5742 29.590402,-35.45044 7.56779,-5.7303 10.0678,-7.82507 13.32378,-11.16405 6.77007,-6.94265 12.50832,-15.99777 21.44102,-33.83448 18.75154,-37.44286 23.27115,-44.65828 35.98336,-57.4463 10.39694,-10.45895 20.48191,-17.80706 33.13313,-24.14145 6.31722,-3.16299 10.26226,-4.76855 17.98454,-7.31933 9.98793,-3.29917 15.20405,-4.50041 23.758,-5.47133 5.30978,-0.60269 50.30402,-0.59823 58.16292,0.006 25.73568,1.97791 47.58233,6.05491 67.52244,12.60096 5.07405,1.66574 10.26363,3.90046 9.90069,4.26341 -0.10518,0.10518 -1.00228,-0.0439 -1.99355,-0.33125 -11.90863,-3.45229 -44.66746,-4.72927 -61.77088,-2.40791 -9.50965,1.29069 -19.81636,5.42459 -31.10386,12.4754 -5.49673,3.43357 -10.31442,7.1923 -11.90851,9.29095 -1.42038,1.86996 -1.52607,3.738 -0.28188,4.98218 1.92213,1.92214 4.92398,0.81461 13.66581,-5.04198 9.83511,-6.58903 18.08782,-10.54222 26.57803,-12.73133 6.00202,-1.54756 10.31061,-1.7968 27.8133,-1.60893 16.87085,0.18109 18.13639,0.28096 31.14348,2.45775 27.29474,4.56788 34.59971,6.57319 40.79137,11.19778 4.53673,3.3885 17.26436,16.78998 20.3039,21.37882 1.89583,2.86221 1.4585,2.80552 -3.80394,-0.49312 -8.62803,-5.40825 -19.68499,-9.9689 -28.09963,-11.59021 -6.30502,-1.21484 -12.09391,-1.44878 -32.06908,-1.29596 -17.78805,0.13609 -18.95875,0.18289 -22.00356,0.87945 -5.52858,1.2648 -12.65329,3.38468 -23.52687,7.0002 -14.80394,4.92237 -25.83394,7.58071 -36.55975,8.81127 -10.19379,1.16952 -11.34425,1.67402 -11.33567,4.9709 0.003,0.97746 0.10222,2.14193 0.22151,2.58771 l 0.21689,0.81051 6.97196,-0.20473 c 13.31012,-0.39084 23.96169,-2.65904 44.03948,-9.37801 13.75179,-4.60199 19.28051,-5.98668 29.28165,-7.33371 6.16065,-0.82976 23.01103,-0.8295 31.31275,3.3e-4 16.63089,1.66273 24.40525,3.97341 34.61267,10.28744 4.23765,2.62131 7.61766,5.22805 13.02654,10.04644 5.54703,4.94142 10.16558,9.75185 10.44969,10.8838 0.24905,0.99234 1.73794,1.35755 4.29824,1.05432 3.38276,-0.40064 4.43016,-3.04009 2.95979,-7.45864 -0.96928,-2.91252 -7.1405,-15.25839 -10.00343,-20.01225 -9.0243,-14.98472 -24.55149,-29.28388 -42.63902,-39.26668 -5.13114,-2.83196 -7.62674,-4.43518 -7.62674,-4.89957 0,-0.82011 4.66542,-4.02738 9.11684,-6.26743 11.90268,-5.98969 34.84274,-9.84356 51.73683,-8.69167 12.07033,0.823 25.55963,3.96568 45.77893,10.66537 11.15147,3.69506 16.41533,5.68681 15.85623,5.9997 -0.60411,0.33809 -5.73585,0.87706 -12.64033,1.32758 -18.98656,1.23889 -31.11136,3.67017 -39.1822,7.85687 -5.18224,2.68828 -9.44494,7.74066 -8.91485,10.56635 0.28469,1.51746 2.20973,3.24479 3.6162,3.24479 1.41174,0 2.17974,-0.45833 4.55446,-2.71812 5.11336,-4.86587 10.83519,-7.10751 22.3552,-8.75806 8.93487,-1.28016 19.24993,-1.83831 44.503,-2.40803 l 15.42226,-0.34793 11.15126,3.75686 c 6.1332,2.06627 13.89325,4.84306 17.24456,6.17063 10.10406,4.00258 22.16783,10.37118 24.54242,12.95623 l 0.84629,0.9213 -1.35406,-0.20961 c -0.74474,-0.11528 -3.40402,-0.82753 -5.90955,-1.58278 -9.80942,-2.95687 -17.59475,-4.05406 -30.52783,-4.3023 -15.60766,-0.29957 -28.29795,1.17848 -41.75986,4.86378 -16.75144,4.58585 -36.45268,15.17463 -53.88663,28.96232 -5.99408,4.74043 -7.25106,6.50464 -6.52023,9.15141 0.47937,1.73623 1.41574,2.42203 3.2962,2.41418 1.92622,-0.008 3.70357,-0.87 6.39382,-3.10084 2.85681,-2.36895 15.80268,-12.24315 17.65664,-13.46722 2.09399,-1.38259 9.94743,-5.76159 13.78651,-7.68725 22.9057,-11.48934 52.39905,-16.02112 77.32921,-11.88197 4.92122,0.81706 11.22358,2.51702 19.97246,5.38722 12.079,3.9627 13.41001,4.68732 15.21688,8.28445 1.82754,3.63826 2.73074,9.54118 2.73253,17.85839 0,5.64288 -0.19353,6.59713 -2.46964,12.10029 -1.99058,4.81281 -2.61616,7.29891 -2.61616,10.39679 0,4.18664 1.43382,7.72076 6.78343,16.72011 1.45044,2.43997 3.22,5.56278 3.93241,6.93958 1.20626,2.33134 1.29479,2.70089 1.28849,5.38066 -0.005,2.25191 -0.21641,3.50263 -0.97127,5.75375 -2.02091,6.02667 -4.58507,11.09514 -9.00839,17.80656 -4.77474,7.24454 -8.32347,14.34754 -9.35781,18.73011 -1.40714,5.96218 0.7446,25.972 3.73959,34.77571 1.96103,5.7644 4.44076,8.66325 10.51953,12.29743 6.74991,4.03543 8.2734,6.06234 7.82862,10.41565 -0.28211,2.76119 -1.88583,7.69362 -3.3119,10.18615 -4.36585,7.63069 -12.88616,13.05773 -26.33741,16.77568 -11.63219,3.21516 -12.96957,3.79759 -13.50226,5.88032 -0.17752,0.69399 -0.7316,4.1561 -1.23132,7.6936 -1.26666,8.96664 -3.2445,19.99994 -4.73327,26.40426 -4.62352,19.88901 -11.71746,38.22921 -18.04484,46.6519 -3.18868,4.24455 -10.44583,11.75392 -14.19666,14.68998 -2.70565,2.11792 -2.79259,2.23011 -2.78697,3.5967 0.003,0.77584 0.30528,2.55308 0.67125,3.94946 0.93335,3.56109 0.86264,4.61628 -0.49038,7.31723 -3.54321,7.0732 -10.30609,10.98658 -27.13095,15.69951 -20.59617,5.76933 -42.81871,9.25574 -75.45685,11.83818 -38.91345,3.0789 -100.6241,4.77829 -148.27009,4.08301 z M 423.5005,259.27965 c 6.02167,-0.83754 10.22997,-2.90583 14.40533,-7.07997 2.0572,-2.05657 2.88991,-3.21604 4.14716,-5.77452 1.92995,-3.92745 2.58803,-6.97127 2.58803,-11.97068 0,-7.27181 -2.2246,-12.93564 -6.93082,-17.64601 -4.4461,-4.45001 -9.80292,-6.758 -16.59606,-7.15041 -11.68933,-0.67525 -21.81036,5.7115 -25.39771,16.02691 -2.81835,8.10418 -1.45662,17.05477 3.69252,24.27064 2.26892,3.17961 7.4652,7.99373 8.6283,7.99373 0.51518,0 1.74217,0.2392 2.72665,0.53156 4.03698,1.19885 8.05037,1.45054 12.7366,0.79875 z m 165.9551,-6.5977 c 1.48856,-0.30132 3.97408,-1.18664 5.78707,-2.06132 7.71499,-3.72205 12.22463,-11.50957 12.22463,-21.11019 0,-5.29579 -1.34353,-9.67823 -4.18856,-13.6626 -2.91574,-4.08338 -6.73535,-6.98837 -11.27222,-8.57304 -2.42377,-0.8466 -3.083,-0.9265 -7.72758,-0.93656 -3.84503,-0.008 -5.60647,0.13479 -7.25565,0.58953 -6.59474,1.81836 -11.12327,5.45508 -14.21443,11.41517 -2.16512,4.17454 -2.88646,7.01848 -2.87644,11.34029 0.0105,4.44666 0.59772,6.93918 2.5928,11.00178 2.62776,5.35106 8.80138,10.45458 14.49976,11.9865 2.50323,0.67296 9.13012,0.67852 12.43062,0.0104 z"
       id="path387"
       transform="scale(0.26458333)" /></g></svg>
