<?xml version="1.0" encoding="UTF-8" standalone="no"?>
<!-- Created with Inkscape (http://www.inkscape.org/) -->

<svg
   width="210mm"
   height="297mm"
   viewBox="0 0 210 297"
   version="1.1"
   id="svg357"
   xml:space="preserve"
   inkscape:export-filename="bitmapa.svg"
   inkscape:export-xdpi="96"
   inkscape:export-ydpi="96"
   xmlns:inkscape="http://www.inkscape.org/namespaces/inkscape"
   xmlns:sodipodi="http://sodipodi.sourceforge.net/DTD/sodipodi-0.dtd"
   xmlns="http://www.w3.org/2000/svg"
   xmlns:svg="http://www.w3.org/2000/svg"><sodipodi:namedview
     id="namedview359"
     pagecolor="#ffffff"
     bordercolor="#999999"
     borderopacity="1"
     inkscape:showpageshadow="0"
     inkscape:pageopacity="0"
     inkscape:pagecheckerboard="0"
     inkscape:deskcolor="#d1d1d1"
     inkscape:document-units="mm"
     showgrid="false" /><defs
     id="defs354" /><g
     inkscape:label="Warstwa 1"
     inkscape:groupmode="layer"
     id="layer1"><path
       style="fill:#000000;stroke-width:0.264583"
       d="M 17.407275,26.06788 C 14.528885,25.6629 10.99718,24.51677 9.5871006,23.53004 6.7677676,21.55715 4.0876336,18.6121 1.3031516,14.427283 c -2.05540199,-3.089078 -1.82954999,-3.635756 1.759357,-4.258562 2.119528,-0.3678152 4.273672,-0.9702652 7.1185634,-1.9908482 0.800365,-0.287125 2.161455,-0.762297 3.024646,-1.055938 2.108786,-0.71737 8.630235,-3.462113 10.601396,-4.461908 1.800318,-0.913142 2.173309,-0.948559 3.836459,-0.364288 2.087337,0.73329 5.388155,0.08933 7.113923,-1.38786698 1.191385,-1.01978 1.990434,-1.134376 3.998577,-0.573457 1.982227,0.55368 3.900133,0.94318798 6.87482,1.39620798 3.60341,0.548769 3.814286,1.006787 2.233197,4.850475 C 45.012612,13.513157 40.994324,19.05002 36.25848,22.57266 c -2.406253,1.78983 -3.518056,2.39797 -5.80018,3.17263 -2.122424,0.72044 -9.012772,0.89076 -13.051025,0.32259 z M 30.824851,23.7771 c 0.949339,-0.36954 2.378089,-1.0626 3.175,-1.54014 2.891701,-1.73281 7.05756,-6.30393 9.474997,-10.396737 1.487826,-2.5189432 3.483309,-6.8424652 3.483309,-7.5471282 0,-0.398539 -0.34639,-0.542993 -1.91823,-0.799958 -1.055026,-0.172475 -2.93026,-0.550978 -4.167187,-0.841115 -3.938461,-0.923818 -4.586095,-0.943736 -5.597687,-0.172158 -0.486854,0.371343 -1.480373,0.931771 -2.207815,1.245394 -1.345423,0.580055 -2.7137,0.604343 -6.481999,0.11506 -1.075645,-0.139663 -1.535567,0.01105 -4.7625,1.560615 -4.958073,2.380856 -13.6341114,5.5045662 -17.4625004,6.2871772 -2.501429,0.511349 -2.573707,0.656725 -1.27745,2.569402 2.401982,3.544218 5.627895,6.920008 7.7609234,8.121508 3.10846,1.75094 6.160627,2.22822 13.624861,2.13055 4.24788,-0.0556 4.772734,-0.11607 6.356278,-0.73247 z"
       id="path601" /><path
       style="fill:#fea0ae;fill-opacity:1;stroke:#000000;stroke-width:0.87303"
       d="M 75.759685,92.38501 C 64.688691,91.993609 57.03708,90.851481 50.147406,88.561954 46.865051,87.471187 41.391602,84.768565 38.7044,82.911751 30.466047,77.21918 19.637062,65.477152 11.686231,53.615553 8.7493569,49.234123 8.199044,47.693173 9.2101153,46.682101 9.9817609,45.910455 11.233298,45.498385 16.247803,44.364934 33.272751,40.516708 61.07934,30.548545 81.743862,20.885775 96.577348,13.949609 96.035241,14.09067 104.12469,15.062096 c 9.38845,1.127418 14.9719,1.086272 18.87615,-0.139106 2.5391,-0.796917 6.34445,-2.749071 9.73719,-4.9951991 1.49375,-0.9889214 3.25337,-1.9576476 3.91026,-2.152725 2.53565,-0.7530057 5.33468,-0.4062552 16.2215,2.0095598 7.77532,1.7253623 12.86457,2.7613833 17.79895,3.6233323 3.7886,0.661803 5.47905,1.141448 6.11675,1.735557 0.44329,0.412984 0.50329,0.662191 0.38992,1.619452 -0.43553,3.677345 -8.8465,21.309461 -14.44083,30.272667 -5.48135,8.782182 -12.12645,17.009584 -20.40504,25.263804 -7.6245,7.602049 -11.81588,10.771339 -18.81612,14.227683 -6.85376,3.384021 -11.22695,4.918335 -15.34912,5.385178 -5.11035,0.578753 -22.308719,0.829641 -32.404615,0.472711 z"
       id="path1572"
       transform="scale(0.26458333)" /></g></svg>
