<?xml version="1.0" encoding="UTF-8" standalone="no"?>
<!-- Created with Inkscape (http://www.inkscape.org/) -->

<svg
   width="108.65021mm"
   height="26.909008mm"
   viewBox="0 0 108.65021 26.909008"
   version="1.1"
   id="svg5"
   xml:space="preserve"
   inkscape:export-filename="mustache23123123.svg"
   inkscape:export-xdpi="96"
   inkscape:export-ydpi="96"
   xmlns:inkscape="http://www.inkscape.org/namespaces/inkscape"
   xmlns:sodipodi="http://sodipodi.sourceforge.net/DTD/sodipodi-0.dtd"
   xmlns="http://www.w3.org/2000/svg"
   xmlns:svg="http://www.w3.org/2000/svg"><sodipodi:namedview
     id="namedview7"
     pagecolor="#ffffff"
     bordercolor="#999999"
     borderopacity="1"
     inkscape:showpageshadow="0"
     inkscape:pageopacity="0"
     inkscape:pagecheckerboard="0"
     inkscape:deskcolor="#d1d1d1"
     inkscape:document-units="mm"
     showgrid="false" /><defs
     id="defs2" /><g
     inkscape:label="Warstwa 1"
     inkscape:groupmode="layer"
     id="layer1"
     transform="translate(-3.5378464,-7.2548249)"><g
       id="g1399"
       transform="translate(4.2991554,7.5235223)"><path
         style="fill:#f3e39b;fill-opacity:1;stroke-width:0.255334"
         d="m 27.680692,25.018395 c 0,-0.137263 -0.520022,-0.249568 -1.155604,-0.249568 -1.717022,0 -6.83766,-1.071439 -10.285292,-2.152086 C 7.818073,19.976989 2.1391947,14.906673 0.38087388,8.4572989 -0.08104682,6.7630148 -0.13683752,2.7550636 0.29070148,1.9790621 0.66541968,1.2989243 1.0690399,1.0308969 1.4942627,1.1798187 1.674863,1.2430172 3.6144922,1.0824271 5.80455,0.82283247 c 7.291407,-0.86426238 10.976073,-1.08660766 18.088318,-1.09149376 11.919342,-0.008492 21.34738,1.48735189 33.045534,5.24194299 4.797004,1.5396275 5.158917,1.6187009 6.207949,1.3563333 2.206769,-0.55193 5.29119,-0.172928 6.907133,0.8487169 0.53906,0.3408194 1.14428,0.6196656 1.344943,0.6196656 0.200654,0 1.238372,-0.3803221 2.306034,-0.845152 6.38167,-2.7784296 14.130062,-4.2120817 24.638812,-4.5588242 4.440907,-0.1465355 4.440907,-0.1465355 6.131207,0.69839 2.09316,1.0462927 2.88122,2.0625713 2.88122,3.7155494 0,4.9139813 -4.81897,8.5649563 -12.800243,9.6977923 -5.298822,0.7521 -15.298175,1.090277 -16.395705,0.554506 -0.458158,-0.223648 -3.351067,-0.839258 -6.160804,-1.311 -1.419279,-0.238287 -1.565423,-0.217611 -2.062136,0.291759 -0.294035,0.301514 -1.13484,0.815232 -1.868452,1.141581 -1.52744,0.679478 -4.519368,0.816977 -6.540352,0.30057 -1.14882,-0.293552 -1.213016,-0.275979 -4.640572,1.270421 -4.288855,1.934976 -4.052164,1.837339 -6.741004,2.780751 -1.221244,0.428476 -2.69066,0.951325 -3.265364,1.161879 -1.31327,0.481138 -3.456734,1.141562 -5.485821,1.690248 -0.862057,0.233107 -1.771499,0.526801 -2.020984,0.65266 -0.632701,0.319181 -11.693567,0.29957 -11.693567,-0.02075 z"
         id="path310" /><path
         style="fill:#070604;stroke:none;stroke-width:0.264583"
         d="m 101.65721,1.9767707 c 0.49503,2.35119 4.61777,2.5309499 4.40981,5.0270798 -0.38523,4.6217405 -5.01121,6.6546705 -8.907727,7.6288105 -5.324468,1.33114 -11.419678,1.90307 -16.933328,1.36702 -2.67626,-0.26019 -5.27817,-1.37755 -7.9375,-1.5875 0.3302,-1.04537 0.8726,-2.33206 0.74956,-3.43958 -1.14617,-10.3169204 -20.8481,-3.1450005 -13.97873,5.55625 -6.94954,2.56035 -13.502739,6.30767 -20.902077,7.84939 -7.228151,1.50575 -17.089278,-0.46725 -23.812499,-3.17508 C 7.8431127,18.584451 2.1272665,13.759031 1.1155525,6.4746805 0.96897351,5.4193905 0.68489051,4.3806406 0.89507551,3.2996807 1.0115975,2.7004007 1.6201395,2.0742707 1.5124275,1.4476006 c -0.08874,-0.51625 -0.70588199,-0.86106 -1.19062499,-0.66146 -1.34056401,0.552 -1.058333,2.4431901 -1.058333,3.5718801 0,3.3530098 0.79748,6.6934803 2.64583299,9.5250003 5.5425442,8.49074 16.6795715,11.01248 25.9291665,12.43541 8.250237,1.26921 17.167753,-1.39726 24.606246,-4.80668 2.4638,-1.12914 5.0964,-2.78453 7.67292,-3.5718 2.02274,-0.61809 4.62862,1.00918 6.87916,0.3528 1.406,-0.41005 2.90486,-2.21928 4.23334,-2.29307 2.56143,-0.14229 5.42766,1.5035 7.9375,1.85209 6.94081,0.96398 16.369238,0.10371 22.754155,-2.73402 5.08344,-2.25928 8.90455,-9.1053705 2.91042,-12.4354203 -1.08982,-0.60552 -1.94363,-0.70556 -3.175,-0.70556 z"
         id="path306" /></g></g></svg>
