<?xml version="1.0" encoding="UTF-8" standalone="no"?>
<!-- Created with Inkscape (http://www.inkscape.org/) -->

<svg
   width="151.91847mm"
   height="112.28693mm"
   viewBox="0 0 151.91847 112.28693"
   version="1.1"
   id="svg5"
   xml:space="preserve"
   inkscape:version="1.2 (dc2aedaf03, 2022-05-15)"
   sodipodi:docname="ebin_outline.svg"
   xmlns:inkscape="http://www.inkscape.org/namespaces/inkscape"
   xmlns:sodipodi="http://sodipodi.sourceforge.net/DTD/sodipodi-0.dtd"
   xmlns="http://www.w3.org/2000/svg"
   xmlns:svg="http://www.w3.org/2000/svg"><sodipodi:namedview
     id="namedview7"
     pagecolor="#ffffff"
     bordercolor="#999999"
     borderopacity="1"
     inkscape:showpageshadow="0"
     inkscape:pageopacity="0"
     inkscape:pagecheckerboard="0"
     inkscape:deskcolor="#d1d1d1"
     inkscape:document-units="mm"
     showgrid="false"
     inkscape:zoom="0.36925856"
     inkscape:cx="-419.76008"
     inkscape:cy="961.38598"
     inkscape:window-width="2560"
     inkscape:window-height="1009"
     inkscape:window-x="1912"
     inkscape:window-y="-8"
     inkscape:window-maximized="1"
     inkscape:current-layer="layer1" /><defs
     id="defs2" /><g
     inkscape:label="Warstwa 1"
     inkscape:groupmode="layer"
     id="layer1"
     style="display:inline"
     transform="translate(-23.923375,-153.50372)"><path
       style="fill:#000000;stroke-width:0.264583"
       d="m 74.142044,265.68985 -6.74688,-0.1631 -3.57187,-1.23876 c -6.97902,-2.42039 -12.94043,-5.48504 -17.99167,-9.24919 -4.59113,-3.42128 -9.53966,-8.87188 -12.76489,-14.06 -5.62028,-9.04081 -9.4841,-22.74166 -9.11959,-32.33746 0.31452,-8.27987 2.44119,-12.08322 9.62565,-17.21458 1.13981,-0.81408 2.46929,-1.85774 2.95441,-2.31924 1.61352,-1.53498 3.98485,-5.44552 6.75387,-11.13775 2.93838,-6.04036 4.3888,-8.47313 6.79501,-11.39718 4.97406,-6.04454 12.06933,-10.21253 20.36179,-11.96118 1.90547,-0.40181 3.56232,-0.47245 10.84792,-0.46249 7.43196,0.0102 9.17348,0.0923 12.83229,0.60521 5.50777,0.7721 9.448306,1.66498 13.105216,2.96947 l 2.95772,1.05508 1.02268,-0.92393 c 1.44195,-1.30272 3.72593,-2.38789 7.0441,-3.3468 2.52938,-0.73097 3.35946,-0.84135 7.2234,-0.96058 6.23127,-0.19229 7.40116,0.063 21.69584,4.73448 16.04846,5.24461 17.55612,5.84617 20.83289,8.31246 3.84265,2.89222 5.36086,5.95495 5.36086,10.81466 0,2.38344 -0.0799,2.8611 -0.66146,3.95488 -0.93541,1.75926 -0.86371,2.90139 0.30154,4.80347 2.11978,3.46017 2.20555,3.6555 2.20881,5.03053 0.004,1.8306 -0.61281,3.51797 -2.31078,6.31789 -2.47114,4.07485 -2.9777,5.25024 -2.9777,6.9093 0,1.71818 0.91548,6.47987 1.44132,7.49672 0.19668,0.38035 1.05418,1.08609 1.90554,1.56831 2.20131,1.24684 2.61438,1.89591 2.57081,4.03956 -0.0926,4.55677 -3.62285,7.80935 -10.29755,9.4876 l -1.07259,0.26969 -0.47031,2.9497 c -0.57961,3.63519 -2.00201,9.48621 -2.95104,12.13909 -1.36012,3.80204 -2.98491,6.59541 -5.04264,8.66944 l -1.90745,1.92255 0.0356,1.54692 c 0.0301,1.3069 -0.0827,1.71755 -0.72652,2.64662 -3.10353,4.47839 -14.91509,7.05723 -37.72471,8.2365 -6.54535,0.3384 -32.170196,0.51859 -41.539576,0.29211 z m 31.820346,-1.88195 c 18.1185,-0.51242 28.93498,-1.55802 36.80571,-3.5579 5.89528,-1.49794 7.93326,-2.53393 8.98748,-4.56871 0.431,-0.8319 0.44863,-1.07976 0.1521,-2.13885 -0.32907,-1.17533 -0.32124,-1.20833 0.41549,-1.75055 1.49282,-1.09868 3.81279,-3.61634 4.58907,-4.98011 1.73551,-3.04894 3.35685,-7.742 4.41187,-12.77044 0.36034,-1.71745 1.17846,-6.80532 1.19125,-7.40834 0.0143,-0.67274 0.61884,-0.99451 2.95589,-1.57322 5.09239,-1.26097 7.71162,-3.34889 8.43554,-6.72438 0.37203,-1.73472 0.0566,-2.29198 -1.93252,-3.41459 -2.15196,-1.2145 -2.7164,-2.13624 -3.37503,-5.51148 -0.30959,-1.58656 -0.57702,-3.77763 -0.5943,-4.86904 -0.027,-1.70898 0.085,-2.23653 0.80762,-3.80135 0.46146,-0.99934 1.27519,-2.42408 1.80828,-3.16611 1.31636,-1.83228 2.51744,-4.47084 2.67617,-5.87906 0.11878,-1.05383 -0.0101,-1.39542 -1.38073,-3.66092 -2.19661,-3.63064 -2.30508,-4.41967 -1.01796,-7.40516 0.5981,-1.38729 0.6575,-1.81602 0.54992,-3.96875 -0.15679,-3.1375 -0.69746,-4.48476 -2.01058,-5.01007 -1.37363,-0.54952 -4.72268,-1.63687 -6.13104,-1.9906 -6.42755,-1.61436 -14.83042,-0.74229 -21.29896,2.21045 -1.91115,0.8724 -5.08899,2.64388 -5.42396,3.02358 -0.0728,0.0825 -0.84666,0.67574 -1.71979,1.31836 -0.87312,0.64262 -1.9863,1.51191 -2.47372,1.93176 -1.13659,0.97901 -2.24983,0.93663 -2.36898,-0.0902 -0.0638,-0.54994 0.17949,-0.90643 1.19062,-1.74449 4.00684,-3.32099 9.29924,-6.35573 13.44167,-7.70765 6.68338,-2.18119 15.24192,-2.34804 20.9547,-0.4085 1.73924,0.59049 1.91958,0.31793 0.42443,-0.6415 -2.28383,-1.46553 -5.10453,-2.71745 -9.2052,-4.08557 l -3.96565,-1.32306 -7.14685,0.15403 c -9.37347,0.20203 -12.97341,0.92595 -14.74674,2.96546 -0.61632,0.70883 -1.24378,0.82881 -1.7399,0.33269 -0.57334,-0.57334 -0.33408,-1.33617 0.73939,-2.35734 1.774,-1.68756 5.72763,-2.66511 12.23792,-3.02588 1.7096,-0.0947 3.05036,-0.26611 2.97946,-0.38081 -0.14971,-0.24224 -6.4889,-2.36647 -9.39511,-3.14825 -1.0914,-0.2936 -3.05593,-0.73318 -4.36562,-0.97684 -4.68693,-0.87201 -11.77078,-0.0995 -15.93448,1.73758 -1.56298,0.68963 -2.97996,1.63477 -2.97857,1.98675 5.3e-4,0.14552 0.91615,0.74083 2.0346,1.32291 4.01896,2.09161 8.20383,5.77474 10.64369,9.3676 1.2633,1.86029 3.45663,6.25731 3.45663,6.92958 0,0.96847 -0.31314,1.29761 -1.23454,1.29761 -0.50234,0 -0.84718,-0.10706 -0.76631,-0.23791 0.19511,-0.3157 -3.66508,-3.93011 -5.49358,-5.1438 -3.41662,-2.26782 -5.71653,-2.92091 -11.68633,-3.31848 -5.20978,-0.34695 -9.37916,0.26115 -14.430546,2.10468 -3.82468,1.39584 -8.27422,2.3915 -10.92791,2.44531 l -2.42432,0.0492 -0.082,-0.70981 c -0.10699,-0.92612 0.37141,-1.15886 2.86013,-1.39149 2.57501,-0.24068 6.69435,-1.21469 9.52646,-2.2525 1.23612,-0.45298 3.43812,-1.14696 4.89333,-1.54218 2.529016,-0.68688 2.908656,-0.71752 8.598956,-0.69419 5.24157,0.0215 6.22989,0.095 8.26868,0.61515 2.26163,0.57699 4.75804,1.70714 6.72833,3.04599 0.53911,0.36633 1.03342,0.61284 1.09847,0.54779 0.33045,-0.33045 -3.71265,-4.83169 -5.78117,-6.43626 -1.45208,-1.12638 -3.39324,-1.65274 -10.5789,-2.86852 -3.71405,-0.62841 -5.09617,-0.73741 -9.260406,-0.73036 -4.26779,0.007 -5.16563,0.0849 -7.00914,0.60664 -2.30164,0.65136 -5.00583,2.03843 -7.26,3.72392 -1.52553,1.14068 -2.7479,1.3982 -3.03877,0.64021 -0.26648,-0.69444 0.4741,-1.53383 2.61891,-2.96837 2.60213,-1.74041 4.91056,-2.82916 7.46695,-3.5217 3.69771,-1.00174 14.884066,-0.70493 18.255906,0.48438 0.33429,0.11791 0.39693,0.082 0.21093,-0.12086 -0.67026,-0.73105 -7.07079,-2.59895 -11.455266,-3.34305 -6.00677,-1.01942 -9.25081,-1.27746 -16.45827,-1.3091 -8.34947,-0.0367 -9.93219,0.14968 -14.73815,1.73507 -6.90282,2.2771 -13.15037,7.02012 -17.10126,12.98295 -0.79567,1.20086 -2.74338,4.80275 -4.32825,8.00421 -4.50627,9.10275 -5.79373,10.90257 -10.05438,14.05564 -5.36335,3.96911 -7.04549,5.90066 -8.11433,9.31743 -1.77272,5.66687 -1.51993,11.65447 0.89544,21.20922 4.96439,19.63818 17.65989,33.03436 37.35113,39.4126 l 2.56334,0.83029 8.15229,0.20958 c 12.21914,0.31412 19.73191,0.32155 30.050766,0.0297 z m 5.09401,-68.14559 c -0.50149,-0.17241 -0.97181,-0.25346 -1.04515,-0.18012 -0.0733,0.0733 -0.71566,-0.46134 -1.42738,-1.1882 -4.39071,-4.48409 -1.6664,-11.55265 4.45429,-11.5572 3.89272,-0.003 6.67662,2.74488 6.67662,6.58996 0,2.5568 -1.14001,4.5401 -3.33344,5.79927 -1.2966,0.74433 -3.94418,1.01097 -5.32494,0.53629 z m 42.31303,-2.21332 c -2.62502,-1.50567 -3.80302,-4.7308 -2.74944,-7.52745 0.93145,-2.47248 2.68943,-3.83118 5.25505,-4.06152 1.97167,-0.17702 3.5376,0.28517 4.78528,1.41237 1.41916,1.28213 2.11713,2.82871 2.11713,4.69119 0,3.70225 -2.56564,6.26061 -6.27331,6.25548 -1.49583,-0.002 -2.02043,-0.13094 -3.13471,-0.77007 z"
       id="path211"
       inkscape:export-filename="path211.svg"
       inkscape:export-xdpi="96"
       inkscape:export-ydpi="96" /></g></svg>
