<?xml version="1.0" encoding="UTF-8" standalone="no"?>
<!-- Created with Inkscape (http://www.inkscape.org/) -->

<svg
   width="151.91847mm"
   height="112.28693mm"
   viewBox="0 0 151.91847 112.28693"
   version="1.1"
   id="svg5"
   xml:space="preserve"
   xmlns:inkscape="http://www.inkscape.org/namespaces/inkscape"
   xmlns:sodipodi="http://sodipodi.sourceforge.net/DTD/sodipodi-0.dtd"
   xmlns="http://www.w3.org/2000/svg"
   xmlns:svg="http://www.w3.org/2000/svg"><sodipodi:namedview
     id="namedview7"
     pagecolor="#ffffff"
     bordercolor="#999999"
     borderopacity="1"
     inkscape:showpageshadow="0"
     inkscape:pageopacity="0"
     inkscape:pagecheckerboard="0"
     inkscape:deskcolor="#d1d1d1"
     inkscape:document-units="mm"
     showgrid="false" /><defs
     id="defs2" /><g
     inkscape:label="Warstwa 1"
     inkscape:groupmode="layer"
     id="layer1"><path
       style="fill:#000000;stroke-width:0.264583"
       d="m 50.218669,112.18612 -6.74688,-0.1631 -3.57187,-1.23876 c -6.97902,-2.42039 -12.94043,-5.48504 -17.99167,-9.24919 -4.59113,-3.42128 -9.53966,-8.87188 -12.7648902,-14.06 -5.6202796,-9.040808 -9.48409963,-22.741658 -9.11958963,-32.337458 0.31452,-8.27987 2.44119003,-12.08322 9.62564963,-17.21458 1.1398102,-0.81408 2.4692902,-1.85774 2.9544102,-2.31924 1.61352,-1.53498 3.98485,-5.44552 6.75387,-11.13775 2.93838,-6.04036 4.3888,-8.47313 6.79501,-11.39718 4.97406,-6.0445397 12.06933,-10.2125297 20.36179,-11.9611797 1.90547,-0.40180996 3.56232,-0.47244996 10.84792,-0.46248996 7.43196,0.0102 9.17348,0.0923 12.83229,0.60520996 5.50777,0.7721 9.448306,1.66498 13.105216,2.96947 l 2.95772,1.05508 1.02268,-0.92393 c 1.44195,-1.30272 3.72593,-2.38789 7.0441,-3.3468 2.52938,-0.73096996 3.35946,-0.84134996 7.223395,-0.96057996 6.23127,-0.19229 7.40116,0.063 21.69584,4.73447996 16.04846,5.2446097 17.55612,5.8461697 20.83289,8.3124597 3.84265,2.89222 5.36086,5.95495 5.36086,10.81466 0,2.38344 -0.0799,2.8611 -0.66146,3.95488 -0.93541,1.75926 -0.86371,2.90139 0.30154,4.80347 2.11978,3.46017 2.20555,3.6555 2.20881,5.03053 0.004,1.8306 -0.61281,3.51797 -2.31078,6.31789 -2.47114,4.07485 -2.9777,5.25024 -2.9777,6.9093 0,1.71818 0.91548,6.47987 1.44132,7.49672 0.19668,0.38035 1.05418,1.08609 1.90554,1.56831 2.20131,1.24684 2.61438,1.89591 2.57081,4.03956 -0.0926,4.55677 -3.62285,7.80935 -10.29755,9.4876 l -1.07259,0.26969 -0.47031,2.9497 c -0.57961,3.63519 -2.00201,9.486208 -2.95104,12.139088 -1.36012,3.80204 -2.98491,6.59541 -5.04264,8.66944 l -1.90745,1.92255 0.0356,1.54692 c 0.0301,1.3069 -0.0827,1.71755 -0.72652,2.64662 -3.10353,4.47839 -14.91509,7.05723 -37.724705,8.2365 -6.54535,0.3384 -32.170196,0.51859 -41.539576,0.29211 z m 31.820346,-1.88195 c 18.118495,-0.51242 28.934985,-1.55802 36.805715,-3.5579 5.89528,-1.49794 7.93326,-2.53393 8.98748,-4.56871 0.431,-0.8319 0.44863,-1.07976 0.1521,-2.13885 -0.32907,-1.17533 -0.32124,-1.20833 0.41548,-1.75055 1.49282,-1.09868 3.8128,-3.61634 4.58907,-4.98011 1.73551,-3.04894 3.35686,-7.742 4.41187,-12.770438 0.36034,-1.71745 1.17846,-6.80532 1.19125,-7.40834 0.0143,-0.67274 0.61884,-0.99451 2.95589,-1.57322 5.09239,-1.26097 7.71163,-3.34889 8.43554,-6.72438 0.37203,-1.73472 0.0566,-2.29198 -1.93252,-3.41459 -2.15196,-1.2145 -2.7164,-2.13624 -3.37503,-5.51148 -0.30959,-1.58656 -0.57702,-3.77763 -0.5943,-4.86904 -0.027,-1.70898 0.085,-2.23653 0.80762,-3.80135 0.46146,-0.99934 1.27519,-2.42408 1.80828,-3.16611 1.31636,-1.83228 2.51744,-4.47084 2.67617,-5.87906 0.11878,-1.05383 -0.0101,-1.39542 -1.38073,-3.66092 -2.19661,-3.63064 -2.30508,-4.41967 -1.01796,-7.40516 0.5981,-1.38729 0.6575,-1.81602 0.54992,-3.96875 -0.15679,-3.1375 -0.69746,-4.48476 -2.01058,-5.01007 -1.37363,-0.54952 -4.72268,-1.63687 -6.13104,-1.9906 -6.42755,-1.61436 -14.83042,-0.74229 -21.29896,2.21045 -1.91115,0.8724 -5.08899,2.64388 -5.42396,3.02358 -0.0728,0.0825 -0.84666,0.67574 -1.71979,1.31836 -0.87312,0.64262 -1.9863,1.51191 -2.47372,1.93176 -1.13659,0.97901 -2.24983,0.93663 -2.36898,-0.0902 -0.0638,-0.54994 0.17949,-0.90643 1.19062,-1.74449 4.00684,-3.32099 9.29924,-6.35573 13.44167,-7.70765 6.68338,-2.18119 15.24192,-2.34804 20.9547,-0.4085 1.73924,0.59049 1.91958,0.31793 0.42443,-0.6415 -2.28383,-1.46553 -5.10453,-2.71745 -9.2052,-4.0855697 l -3.96565,-1.32306 -7.14685,0.15403 c -9.37347,0.20203 -12.97341,0.92595 -14.74674,2.9654597 -0.61632,0.70883 -1.24378,0.82881 -1.7399,0.33269 -0.57334,-0.57334 -0.33408,-1.33617 0.73939,-2.3573397 1.774,-1.68756 5.72763,-2.66511 12.23792,-3.02588 1.7096,-0.0947 3.05036,-0.26611 2.97946,-0.38081 -0.14971,-0.24224 -6.4889,-2.36647 -9.39511,-3.14825 -1.0914,-0.2936 -3.05593,-0.73318 -4.36562,-0.97684 -4.68693,-0.87201 -11.770775,-0.0995 -15.934475,1.73758 -1.56298,0.68963 -2.97996,1.63477 -2.97857,1.98675 5.3e-4,0.14552 0.91615,0.74083 2.0346,1.32291 4.01896,2.09161 8.20383,5.7747397 10.643685,9.3675997 1.2633,1.86029 3.45663,6.25731 3.45663,6.92958 0,0.96847 -0.31314,1.29761 -1.23454,1.29761 -0.50234,0 -0.84718,-0.10706 -0.76631,-0.23791 0.19511,-0.3157 -3.665075,-3.93011 -5.493575,-5.1438 -3.41662,-2.26782 -5.71653,-2.92091 -11.68633,-3.31848 -5.20978,-0.34695 -9.37916,0.26115 -14.430546,2.10468 -3.82468,1.39584 -8.27422,2.3915 -10.92791,2.44531 l -2.42432,0.0492 -0.082,-0.70981 c -0.10699,-0.92612 0.37141,-1.15886 2.86013,-1.39149 2.57501,-0.24068 6.69435,-1.21469 9.52646,-2.2525 1.23612,-0.45298 3.43812,-1.14696 4.89333,-1.54218 2.529016,-0.68688 2.908656,-0.71752 8.598956,-0.69419 5.24157,0.0215 6.22989,0.095 8.26868,0.61515 2.26163,0.57699 4.75804,1.70714 6.72833,3.04599 0.53911,0.36633 1.03342,0.61284 1.09847,0.54779 0.33045,-0.33045 -3.71265,-4.83169 -5.78117,-6.43626 -1.45208,-1.12638 -3.39324,-1.65274 -10.5789,-2.8685197 -3.71405,-0.62841 -5.09617,-0.73741 -9.260406,-0.73036 -4.26779,0.007 -5.16563,0.0849 -7.00914,0.60664 -2.30164,0.65136 -5.00583,2.0384297 -7.26,3.7239197 -1.52553,1.14068 -2.7479,1.3982 -3.03877,0.64021 -0.26648,-0.69444 0.4741,-1.53383 2.61891,-2.96837 2.60213,-1.7404097 4.91056,-2.8291597 7.46695,-3.5216997 3.69771,-1.00174 14.884066,-0.70493 18.255906,0.48438 0.33429,0.11791 0.39693,0.082 0.21093,-0.12086 -0.67026,-0.73105 -7.07079,-2.59895 -11.455266,-3.34305 -6.00677,-1.01942 -9.25081,-1.27746 -16.45827,-1.3091 -8.34947,-0.0367 -9.93219,0.14968 -14.73815,1.73507 -6.90282,2.2771 -13.15037,7.0201197 -17.10126,12.9829497 -0.79567,1.20086 -2.74338,4.80275 -4.32825,8.00421 -4.50627,9.10275 -5.79373,10.90257 -10.05438,14.05564 -5.3633502,3.96911 -7.0454898,5.90066 -8.1143298,9.31743 -1.77272,5.66687 -1.51993,11.65447 0.89544,21.20922 C 8.8858788,89.4602 21.581379,102.85638 41.272619,109.23462 l 2.56334,0.83029 8.15229,0.20958 c 12.21914,0.31412 19.73191,0.32155 30.050766,0.0297 z m 5.09401,-68.145588 c -0.50149,-0.17241 -0.97181,-0.25346 -1.04515,-0.18012 -0.0733,0.0733 -0.71566,-0.46134 -1.42738,-1.1882 -4.39071,-4.48409 -1.6664,-11.55265 4.45429,-11.5572 3.89272,-0.003 6.67662,2.74488 6.67662,6.58996 0,2.5568 -1.14001,4.5401 -3.33344,5.79927 -1.2966,0.74433 -3.94418,1.01097 -5.32494,0.53629 z m 42.313025,-2.21332 c -2.62502,-1.50567 -3.80302,-4.7308 -2.74943,-7.52745 0.93145,-2.47248 2.68942,-3.83118 5.25505,-4.06152 1.97166,-0.17702 3.5376,0.28517 4.78528,1.41237 1.41916,1.28213 2.11713,2.82871 2.11713,4.69119 0,3.70225 -2.56564,6.26061 -6.27331,6.25548 -1.49584,-0.002 -2.02044,-0.13094 -3.13472,-0.77007 z"
       id="path211"
       inkscape:export-filename="path211.svg"
       inkscape:export-xdpi="96"
       inkscape:export-ydpi="96" /><path
       style="display:inline;fill:#9a5636;fill-opacity:1;stroke:#000000;stroke-width:0.326668"
       d="m 61.50972,110.43138 c -2.512319,-0.0367 -7.469783,-0.13737 -11.016586,-0.2238 l -6.448734,-0.15715 -1.70175,-0.53862 c -8.694857,-2.75196 -15.585186,-6.4638 -21.630127,-11.652219 -0.517241,-0.44395 -1.706681,-1.57598 -2.6432,-2.51563 -2.574158,-2.58273 -4.191778,-4.55488 -6.176494,-7.5302 C 7.5913092,81.365287 4.8616262,74.465097 3.0265302,65.401225 2.2472489,61.552215 1.949945,58.688759 2.0243909,55.749222 c 0.06857,-2.7076 0.3424413,-4.541332 1.0067733,-6.741019 1.084456,-3.590772 2.630999,-5.443591 7.8291268,-9.379596 2.002312,-1.516142 2.663773,-2.070383 3.525251,-2.953821 1.791248,-1.83691 3.309493,-4.232744 5.672937,-8.95204 4.961345,-9.906756 6.157158,-11.815836 9.520597,-15.199333 2.750857,-2.7672638 5.419172,-4.7114508 8.766474,-6.3874248 1.671431,-0.836875 2.715223,-1.261679 4.758409,-1.936573 2.64264,-0.872906 4.022738,-1.190734 6.285971,-1.447623 1.404879,-0.159462 13.309605,-0.158282 15.388939,0.0016 6.809232,0.523322 12.589491,1.602028 17.865311,3.334004 1.34251,0.440727 2.71559,1.031996 2.61956,1.128027 -0.0278,0.02783 -0.26519,-0.01162 -0.52746,-0.08764 -3.15083,-0.913419 -11.818267,-1.251286 -16.343547,-0.637093 -2.516094,0.341495 -5.243078,1.435256 -8.229562,3.300783 -1.454344,0.9084648 -2.729024,1.9029618 -3.150794,2.4582298 -0.375809,0.49476 -0.403772,0.989013 -0.07458,1.318202 0.508563,0.508566 1.302803,0.215532 3.615745,-1.334024 2.602206,-1.743347 4.785736,-2.7892958 7.032104,-3.3684978 1.588034,-0.409458 2.728015,-0.475403 7.358935,-0.425696 4.463749,0.04791 4.798589,0.07434 8.240049,0.65028 7.22173,1.2085848 9.1545,1.7391558 10.792706,2.9627458 1.20035,0.89654 4.56787,4.442349 5.37208,5.656479 0.501594,0.757293 0.385886,0.742294 -1.00646,-0.130471 -2.28284,-1.430933 -5.20832,-2.637605 -7.434696,-3.066576 -1.6682,-0.321427 -3.19984,-0.383323 -8.48494,-0.34289 -4.706421,0.03601 -5.016169,0.04839 -5.821775,0.232688 -1.46277,0.334645 -3.34785,0.89553 -6.224818,1.852136 -3.916875,1.302377 -6.835229,2.00573 -9.6731,2.331315 -2.697107,0.309436 -3.001499,0.442918 -2.999229,1.315218 7.93e-4,0.258619 0.02705,0.566719 0.05861,0.684665 l 0.05738,0.214447 1.844664,-0.05417 c 3.521636,-0.10341 6.339864,-0.703538 11.652113,-2.481265 3.638494,-1.21761 5.101301,-1.583976 7.747435,-1.940378 1.63001,-0.21954 6.08834,-0.219472 8.28484,8.8e-5 4.40025,0.43993 6.457216,1.051298 9.157926,2.721885 1.12121,0.693555 2.01551,1.383255 3.446604,2.65812 1.46765,1.307418 2.68964,2.580177 2.76481,2.879672 0.0659,0.262557 0.45983,0.359185 1.13724,0.278956 0.89502,-0.106003 1.17215,-0.804357 0.78311,-1.973432 -0.25645,-0.770604 -1.88925,-4.037116 -2.64674,-5.294908 -2.387674,-3.964707 -6.495904,-7.7480258 -11.28156,-10.3893088 -1.35761,-0.749289 -2.01791,-1.173474 -2.01791,-1.296344 0,-0.216988 1.23439,-1.065578 2.41217,-1.658258 3.149246,-1.584772 9.21879,-2.604442 13.68869,-2.299671 3.19361,0.217752 6.76265,1.049253 12.11234,2.821879 2.95049,0.977652 4.34322,1.504636 4.19529,1.587421 -0.15983,0.08945 -1.51761,0.232055 -3.34442,0.351256 -5.02352,0.327789 -8.23154,0.971065 -10.36695,2.078796 -1.37114,0.711274 -2.49898,2.0480498 -2.35872,2.7956798 0.0753,0.401495 0.58465,0.858518 0.95678,0.858518 0.37352,0 0.57672,-0.121267 1.20504,-0.719169 1.35291,-1.287429 2.86681,-1.8805288 5.91481,-2.3172368 2.36402,-0.338709 5.09321,-0.486386 11.77475,-0.637125 l 4.08047,-0.09206 2.95044,0.994002 c 1.62274,0.5467008 3.67592,1.2813928 4.56262,1.6326458 2.67337,1.059016 5.86524,2.744042 6.49352,3.428003 l 0.22391,0.24376 -0.35826,-0.05546 c -0.19704,-0.0305 -0.90064,-0.218951 -1.56357,-0.418777 -2.59541,-0.782339 -4.65527,-1.072637 -8.07715,-1.138317 -4.12953,-0.07926 -7.48717,0.311806 -11.04896,1.286875 -4.43216,1.213339 -9.64478,4.014954 -14.25751,7.662947 -1.58593,1.254239 -1.91851,1.721019 -1.72514,2.421311 0.12683,0.459377 0.37458,0.640828 0.87212,0.638751 0.50964,-0.0021 0.9799,-0.230187 1.6917,-0.82043 0.75586,-0.626785 4.18112,-3.239334 4.67165,-3.563202 0.55403,-0.36581 2.63192,-1.524421 3.64768,-2.033918 6.06047,-3.039888 13.86391,-4.238922 20.46002,-3.143771 1.30207,0.21618 2.96957,0.665961 5.28438,1.425368 3.1959,1.048464 3.54806,1.240187 4.02613,2.191927 0.48354,0.962623 0.72251,2.524438 0.72298,4.725033 0,1.493012 -0.0512,1.74549 -0.65342,3.201535 -0.52668,1.273389 -0.69219,1.93117 -0.69219,2.750817 0,1.107715 0.37936,2.042785 1.79478,4.423863 0.38376,0.645575 0.85196,1.471818 1.04045,1.836097 0.31915,0.616833 0.34258,0.71461 0.34091,1.423633 -0.001,0.595817 -0.0573,0.926737 -0.25698,1.522346 -0.5347,1.594556 -1.21313,2.935589 -2.38347,4.711319 -1.26332,1.916784 -2.20225,3.79612 -2.47592,4.955675 -0.37231,1.577493 0.19701,6.871758 0.98943,9.201073 0.51886,1.525164 1.17495,2.292151 2.78329,3.253695 1.78592,1.067707 2.18901,1.603994 2.07133,2.755807 -0.0746,0.730565 -0.49896,2.035604 -0.87628,2.695086 -1.15513,2.018953 -3.40946,3.454857 -6.96844,4.438565 -3.07768,0.850678 -3.43153,1.004779 -3.57247,1.555835 -0.047,0.183618 -0.19357,1.099634 -0.32579,2.035604 -0.33513,2.37242 -0.85844,5.29165 -1.25234,6.98612 -1.22331,5.262304 -3.10024,10.114814 -4.77436,12.343324 -0.84368,1.12304 -2.7638,3.10989 -3.7562,3.88672 -0.71587,0.56037 -0.73888,0.59005 -0.73739,0.95163 7.9e-4,0.20527 0.0808,0.6755 0.1776,1.044959 0.24695,0.94221 0.22824,1.22139 -0.12974,1.93602 -0.93748,1.87145 -2.72682,2.90686 -7.1784,4.15383 -5.4494,1.52646 -11.32912,2.44891 -19.96463,3.13218 -10.29584,0.81463 -26.623448,1.26426 -39.229783,1.0803 z M 90.26475,42.35286 c 1.59324,-0.221599 2.706676,-0.768834 3.811406,-1.873242 0.5443,-0.544134 0.76462,-0.85091 1.09727,-1.527842 0.51063,-1.039137 0.68475,-1.844481 0.68475,-3.167242 0,-1.924 -0.58859,-3.422555 -1.83378,-4.66884 -1.17636,-1.177398 -2.593686,-1.788054 -4.391036,-1.891879 -3.0928,-0.17866 -5.77066,1.511167 -6.71981,4.240453 -0.74569,2.144231 -0.3854,4.512408 0.97698,6.421607 0.60032,0.841271 1.97517,2.115007 2.2829,2.115007 0.13631,0 0.46095,0.06329 0.72143,0.140642 1.06812,0.317196 2.12999,0.383789 3.36989,0.211336 z m 43.90895,-1.745641 c 0.39384,-0.07972 1.05147,-0.313965 1.53116,-0.545391 2.04126,-0.984793 3.23443,-3.045241 3.23443,-5.585405 0,-1.401177 -0.35547,-2.560698 -1.10822,-3.614896 -0.77146,-1.080394 -1.78206,-1.849006 -2.98244,-2.268283 -0.64129,-0.223996 -0.81571,-0.245137 -2.04459,-0.247798 -1.01733,-0.0021 -1.48338,0.03566 -1.91973,0.155979 -1.74485,0.481108 -2.94303,1.443324 -3.7609,3.020264 -0.57285,1.104514 -0.76371,1.856973 -0.76106,3.000452 0.003,1.176512 0.15815,1.835991 0.68602,2.910887 0.69526,1.415802 2.32869,2.766108 3.83639,3.171429 0.66231,0.178054 2.41568,0.179525 3.28894,0.0028 z"
       id="path387" /><g
       inkscape:label="Warstwa 1"
       id="layer1-8"
       transform="translate(79,71.88379)"><path
         style="fill:#000000;stroke-width:0.264583"
         d="M 17.407275,26.06788 C 14.528885,25.6629 10.99718,24.51677 9.5871006,23.53004 6.7677676,21.55715 4.0876336,18.6121 1.3031516,14.427283 c -2.05540199,-3.089078 -1.82954999,-3.635756 1.759357,-4.258562 2.119528,-0.3678152 4.273672,-0.9702652 7.1185634,-1.9908482 0.800365,-0.287125 2.161455,-0.762297 3.024646,-1.055938 2.108786,-0.71737 8.630235,-3.462113 10.601396,-4.461908 1.800318,-0.913142 2.173309,-0.948559 3.836459,-0.364288 2.087337,0.73329 5.388155,0.08933 7.113923,-1.38786698 1.191385,-1.01978 1.990434,-1.134376 3.998577,-0.573457 1.982227,0.55368 3.900133,0.94318798 6.87482,1.39620798 3.60341,0.548769 3.814286,1.006787 2.233197,4.850475 C 45.012612,13.513157 40.994324,19.05002 36.25848,22.57266 c -2.406253,1.78983 -3.518056,2.39797 -5.80018,3.17263 -2.122424,0.72044 -9.012772,0.89076 -13.051025,0.32259 z M 30.824851,23.7771 c 0.949339,-0.36954 2.378089,-1.0626 3.175,-1.54014 2.891701,-1.73281 7.05756,-6.30393 9.474997,-10.396737 1.487826,-2.5189432 3.483309,-6.8424652 3.483309,-7.5471282 0,-0.398539 -0.34639,-0.542993 -1.91823,-0.799958 -1.055026,-0.172475 -2.93026,-0.550978 -4.167187,-0.841115 -3.938461,-0.923818 -4.586095,-0.943736 -5.597687,-0.172158 -0.486854,0.371343 -1.480373,0.931771 -2.207815,1.245394 -1.345423,0.580055 -2.7137,0.604343 -6.481999,0.11506 -1.075645,-0.139663 -1.535567,0.01105 -4.7625,1.560615 -4.958073,2.380856 -13.6341114,5.5045662 -17.4625004,6.2871772 -2.501429,0.511349 -2.573707,0.656725 -1.27745,2.569402 2.401982,3.544218 5.627895,6.920008 7.7609234,8.121508 3.10846,1.75094 6.160627,2.22822 13.624861,2.13055 4.24788,-0.0556 4.772734,-0.11607 6.356278,-0.73247 z"
         id="path601" /><path
         style="fill:#fea0ae;fill-opacity:1;stroke:#000000;stroke-width:0.87303"
         d="M 75.759685,92.38501 C 64.688691,91.993609 57.03708,90.851481 50.147406,88.561954 46.865051,87.471187 41.391602,84.768565 38.7044,82.911751 30.466047,77.21918 19.637062,65.477152 11.686231,53.615553 8.7493569,49.234123 8.199044,47.693173 9.2101153,46.682101 9.9817609,45.910455 11.233298,45.498385 16.247803,44.364934 33.272751,40.516708 61.07934,30.548545 81.743862,20.885775 96.577348,13.949609 96.035241,14.09067 104.12469,15.062096 c 9.38845,1.127418 14.9719,1.086272 18.87615,-0.139106 2.5391,-0.796917 6.34445,-2.749071 9.73719,-4.9951991 1.49375,-0.9889214 3.25337,-1.9576476 3.91026,-2.152725 2.53565,-0.7530057 5.33468,-0.4062552 16.2215,2.0095598 7.77532,1.7253623 12.86457,2.7613833 17.79895,3.6233323 3.7886,0.661803 5.47905,1.141448 6.11675,1.735557 0.44329,0.412984 0.50329,0.662191 0.38992,1.619452 -0.43553,3.677345 -8.8465,21.309461 -14.44083,30.272667 -5.48135,8.782182 -12.12645,17.009584 -20.40504,25.263804 -7.6245,7.602049 -11.81588,10.771339 -18.81612,14.227683 -6.85376,3.384021 -11.22695,4.918335 -15.34912,5.385178 -5.11035,0.578753 -22.308719,0.829641 -32.404615,0.472711 z"
         id="path1572"
         transform="scale(0.26458333)" /></g></g></svg>
